<svg width="271" height="31" viewBox="0 0 271 31" fill="none" xmlns="http://www.w3.org/2000/svg">
<path d="M19.263 12.5874C19.6669 12.5874 20.0103 12.7287 20.293 13.0115C20.5758 13.2943 20.7172 13.6376 20.7172 14.0416V17.0307C20.7172 17.4077 20.5758 17.7376 20.293 18.0204C20.0103 18.3032 19.6669 18.4445 19.263 18.4445H5.97325V28.7855C5.97325 29.1625 5.8386 29.4924 5.5693 29.7751C5.30001 30.0579 4.96339 30.1993 4.55945 30.1993H1.48948C1.11247 30.1993 0.782583 30.0579 0.499823 29.7751C0.217064 29.4924 0.0756836 29.1625 0.0756836 28.7855V14.0416C0.0756836 13.6376 0.217064 13.2943 0.499823 13.0115C0.782583 12.7287 1.11247 12.5874 1.48948 12.5874H19.263ZM21.0807 0.226723C21.4577 0.226723 21.7876 0.368103 22.0704 0.650863C22.3531 0.933623 22.4945 1.26351 22.4945 1.64052V4.5893C22.4945 4.99325 22.3531 5.3366 22.0704 5.61936C21.7876 5.90212 21.4577 6.0435 21.0807 6.0435H1.48948C1.11247 6.0435 0.782583 5.90212 0.499823 5.61936C0.217064 5.3366 0.0756836 4.99325 0.0756836 4.5893V1.64052C0.0756836 1.26351 0.217064 0.933623 0.499823 0.650863C0.782583 0.368103 1.11247 0.226723 1.48948 0.226723H21.0807ZM37.1576 24.5845C37.4808 24.6922 37.7366 24.874 37.9251 25.1298C38.1136 25.3856 38.2079 25.6751 38.2079 25.9983V29.1086C38.2079 29.5395 38.0328 29.903 37.6827 30.1993C37.4134 30.4147 37.1172 30.5224 36.7941 30.5224C36.6594 30.5224 36.5652 30.509 36.5113 30.482C34.0069 29.9973 31.8525 28.8393 30.0482 27.0081C27.6246 24.5306 26.4127 21.2721 26.4127 17.2327V1.68092C26.4127 1.27697 26.5541 0.933623 26.8369 0.650863C27.1196 0.368103 27.4495 0.226723 27.8265 0.226723H30.9369C31.3408 0.226723 31.6842 0.368103 31.967 0.650863C32.2497 0.933623 32.3911 1.27697 32.3911 1.68092V17.3135C32.3911 19.8718 33.1182 21.8242 34.5724 23.1707C35.3264 23.8708 36.1882 24.3421 37.1576 24.5845ZM51.0936 0.226723C51.4976 0.226723 51.8409 0.368103 52.1237 0.650863C52.4065 0.933623 52.5478 1.27697 52.5478 1.68092V17.2327C52.5478 21.2721 51.336 24.5306 48.9123 27.0081C47.1081 28.8393 44.9537 29.9973 42.4493 30.482C42.3954 30.509 42.3012 30.5224 42.1665 30.5224C41.8434 30.5224 41.5471 30.4147 41.2778 30.1993C40.9278 29.93 40.7527 29.553 40.7527 29.0682V25.9579C40.7527 25.6616 40.847 25.3856 41.0355 25.1298C41.224 24.874 41.4798 24.6922 41.803 24.5845C42.8263 24.2882 43.688 23.817 44.3882 23.1707C45.8424 21.878 46.5695 19.9257 46.5695 17.3135V1.68092C46.5695 1.27697 46.7109 0.933623 46.9936 0.650863C47.2764 0.368103 47.6197 0.226723 48.0237 0.226723H51.0936ZM83.5302 0.226723C83.9073 0.226723 84.2371 0.368103 84.5199 0.650863C84.8027 0.933623 84.944 1.26351 84.944 1.64052V28.7047C84.944 29.0817 84.8027 29.4116 84.5199 29.6943C84.2371 29.9771 83.9073 30.1185 83.5302 30.1185H79.9755C79.4908 30.1185 79.1003 29.93 78.8041 29.553L59.0513 2.4888C58.8897 2.27337 58.7955 2.031 58.7686 1.76171C58.7416 1.49241 58.7887 1.23658 58.9099 0.994215C59.0311 0.751849 59.2062 0.563342 59.4351 0.428695C59.664 0.294047 59.9131 0.226723 60.1824 0.226723H63.737C63.9525 0.226723 64.1679 0.27385 64.3834 0.368104C64.5988 0.462357 64.7604 0.603737 64.8681 0.792244L79.0465 20.0603V1.64052C79.0465 1.26351 79.1811 0.933623 79.4504 0.650863C79.7197 0.368103 80.0563 0.226723 80.4603 0.226723H83.5302ZM63.2523 19.8179C63.6293 19.8179 63.9592 19.9526 64.242 20.2219C64.5247 20.4912 64.6661 20.8278 64.6661 21.2317V28.7047C64.6661 29.0817 64.5247 29.4116 64.242 29.6943C63.9592 29.9771 63.6293 30.1185 63.2523 30.1185H60.1824C59.8053 30.1185 59.4755 29.9771 59.1927 29.6943C58.9099 29.4116 58.7686 29.0817 58.7686 28.7047V21.2317C58.7686 20.8278 58.9099 20.4912 59.1927 20.2219C59.4755 19.9526 59.8053 19.8179 60.1824 19.8179H63.2523ZM117.138 27.8968C117.3 28.0853 117.394 28.3142 117.421 28.5835C117.448 28.8528 117.401 29.1086 117.28 29.351C117.158 29.5934 116.983 29.7819 116.755 29.9165C116.526 30.0512 116.277 30.1185 116.007 30.1185H112.17C111.927 30.1185 111.705 30.0646 111.503 29.9569C111.301 29.8492 111.133 29.7011 110.998 29.5126L101.344 15.6169L97.3855 19.3332V28.7047C97.3855 29.0817 97.2441 29.4116 96.9613 29.6943C96.6786 29.9771 96.3487 30.1185 95.9717 30.1185H92.9017C92.5247 30.1185 92.1948 29.9771 91.9121 29.6943C91.6293 29.4116 91.4879 29.0817 91.4879 28.7047V17.4751C91.4879 17.0442 91.636 16.7076 91.9323 16.4652L108.817 0.630666C109.086 0.361371 109.41 0.226723 109.787 0.226723H114.149C114.418 0.226723 114.674 0.307512 114.917 0.469089C115.159 0.630666 115.334 0.846102 115.442 1.1154C115.549 1.38469 115.576 1.66072 115.522 1.94348C115.469 2.22624 115.334 2.47534 115.119 2.69077L105.666 11.5775L117.138 27.8968ZM92.9017 10.5273C92.5247 10.5273 92.1948 10.3926 91.9121 10.1233C91.6293 9.85402 91.4879 9.5174 91.4879 9.11346V1.64052C91.4879 1.26351 91.6293 0.933623 91.9121 0.650863C92.1948 0.368103 92.5247 0.226723 92.9017 0.226723H95.9717C96.3487 0.226723 96.6786 0.368103 96.9613 0.650863C97.2441 0.933623 97.3855 1.26351 97.3855 1.64052V9.11346C97.3855 9.5174 97.2441 9.85402 96.9613 10.1233C96.6786 10.3926 96.3487 10.5273 95.9717 10.5273H92.9017ZM132.205 0.549877C132.528 0.819172 132.69 1.18272 132.69 1.64052V4.67009C132.69 5.02018 132.589 5.32313 132.387 5.57896C132.185 5.83479 131.909 6.0031 131.559 6.08389C129.836 6.43398 128.368 7.25533 127.156 8.54794C125.513 10.2714 124.692 12.5133 124.692 15.2736C124.692 18.0339 125.513 20.2892 127.156 22.0396C128.368 23.3053 129.836 24.1132 131.559 24.4633C131.909 24.5441 132.185 24.7124 132.387 24.9682C132.589 25.224 132.69 25.527 132.69 25.8771V28.9067C132.69 29.3375 132.528 29.7011 132.205 29.9973C131.909 30.2127 131.599 30.3204 131.276 30.3204H131.034C127.91 29.8088 125.231 28.395 122.995 26.0791C120.195 23.1976 118.794 19.6092 118.794 15.314C118.794 11.0187 120.195 7.40344 122.995 4.46812C125.177 2.20604 127.856 0.805708 131.034 0.267118C131.465 0.186329 131.855 0.280582 132.205 0.549877ZM144.889 4.46812C147.69 7.40344 149.09 11.0187 149.09 15.314C149.09 19.6092 147.69 23.1976 144.889 26.0791C142.654 28.395 139.974 29.8088 136.851 30.3204H136.608C136.285 30.3204 135.975 30.2127 135.679 29.9973C135.356 29.7011 135.195 29.3375 135.195 28.9067V25.8771C135.195 25.527 135.295 25.224 135.497 24.9682C135.699 24.7124 135.975 24.5441 136.326 24.4633C138.049 24.1132 139.517 23.3053 140.729 22.0396C142.371 20.2892 143.193 18.0339 143.193 15.2736C143.193 12.5133 142.371 10.2714 140.729 8.54794C139.517 7.25533 138.049 6.43398 136.326 6.08389C135.975 6.0031 135.699 5.83479 135.497 5.57896C135.295 5.32313 135.195 5.02018 135.195 4.67009V1.64052C135.195 1.18272 135.363 0.819172 135.699 0.549877C136.036 0.280582 136.42 0.186329 136.851 0.267118C140.028 0.805708 142.708 2.20604 144.889 4.46812ZM173.69 15.213C174.848 15.9401 175.73 16.8288 176.336 17.879C176.942 18.9293 177.245 20.1007 177.245 21.3933C177.245 24.4364 176.087 26.7658 173.771 28.3815C172.209 29.5126 170.095 30.2262 167.429 30.5224H167.268C166.891 30.5224 166.581 30.4012 166.338 30.1589C166.015 29.8626 165.854 29.5126 165.854 29.1086V26.2002C165.854 25.8502 165.975 25.5405 166.217 25.2712C166.46 25.0019 166.756 24.8403 167.106 24.7864C168.372 24.6518 169.355 24.3556 170.055 23.8978C170.593 23.5746 170.957 23.1572 171.145 22.6455C171.253 22.3493 171.307 21.9723 171.307 21.5145C171.307 21.2183 171.253 20.9624 171.145 20.747C171.038 20.5316 170.849 20.3296 170.58 20.1411C169.799 19.6025 168.789 19.1447 167.55 18.7677L166.904 18.5657C165.558 18.1887 164.319 17.879 163.188 17.6367C162.945 17.5828 162.555 17.4885 162.016 17.3539L161.572 17.2327C160.603 16.9903 159.579 16.6537 158.502 16.2229C156.913 15.5496 155.607 14.7013 154.584 13.678C153.399 12.4931 152.806 10.9312 152.806 8.99228C152.806 6.32626 153.83 4.15843 155.876 2.4888C157.277 1.3039 159.243 0.549878 161.774 0.226723C162.205 0.172864 162.575 0.294047 162.885 0.590271C163.194 0.886496 163.349 1.23658 163.349 1.64052V4.54891C163.349 4.89899 163.242 5.20868 163.026 5.47798C162.811 5.74727 162.535 5.90212 162.198 5.94251C161.861 5.98291 161.518 6.05696 161.168 6.16468C160.387 6.4609 159.835 6.7504 159.512 7.03316C159.189 7.31592 158.96 7.60541 158.825 7.90163C158.691 8.35944 158.623 8.79031 158.623 9.19425C158.623 9.40969 158.744 9.63859 158.987 9.88095C159.364 10.258 159.916 10.5946 160.643 10.8908C160.966 11.0255 161.532 11.2274 162.339 11.4967L167.389 12.7489L167.631 12.8297C168.897 13.1798 169.812 13.4491 170.378 13.6376C171.644 14.0685 172.748 14.5936 173.69 15.213ZM166.944 6.08389C166.621 6.0031 166.359 5.83479 166.157 5.57896C165.955 5.32313 165.854 5.02018 165.854 4.67009V1.72131C165.854 1.29044 166.029 0.92689 166.379 0.630666C166.514 0.496018 166.689 0.408498 166.904 0.368104C167.119 0.327709 167.321 0.320977 167.51 0.347906C169.88 0.724919 171.805 1.5328 173.286 2.77156C175.306 4.44119 176.383 6.56862 176.518 9.15386C176.545 9.53087 176.417 9.87422 176.134 10.1839C175.851 10.4936 175.508 10.6484 175.104 10.6484H171.953C171.603 10.6484 171.294 10.5273 171.024 10.2849C170.755 10.0425 170.607 9.74631 170.58 9.39622C170.472 8.69605 170.243 8.11707 169.893 7.65927C169.328 6.98603 168.452 6.47437 167.268 6.12429C167.187 6.12429 167.133 6.11082 167.106 6.08389H166.944ZM162.218 24.6249C162.541 24.6787 162.811 24.8403 163.026 25.1096C163.242 25.3789 163.349 25.6751 163.349 25.9983V28.9874C163.349 29.4183 163.188 29.7819 162.865 30.0781C162.595 30.2935 162.286 30.4012 161.936 30.4012H161.734C159.229 30.0242 157.169 29.2029 155.553 27.9372C153.453 26.2676 152.268 23.9382 151.999 20.949C151.945 20.5181 152.066 20.1478 152.362 19.8381C152.658 19.5285 153.008 19.3736 153.412 19.3736H156.603C156.98 19.3736 157.304 19.5015 157.573 19.7574C157.842 20.0132 157.99 20.3296 158.017 20.7066C158.098 22.0531 158.758 23.0899 159.997 23.817C160.562 24.1401 161.303 24.4094 162.218 24.6249ZM183.344 10.5677C182.967 10.5677 182.638 10.4263 182.355 10.1435C182.072 9.86075 181.931 9.53087 181.931 9.15386V1.64052C181.931 1.26351 182.072 0.933623 182.355 0.650863C182.638 0.368103 182.967 0.226723 183.344 0.226723H186.414C186.818 0.226723 187.155 0.368103 187.424 0.650863C187.694 0.933623 187.828 1.26351 187.828 1.64052V9.15386C187.828 9.53087 187.694 9.86075 187.424 10.1435C187.155 10.4263 186.818 10.5677 186.414 10.5677H183.344ZM205.279 0.226723C205.656 0.226723 205.985 0.368103 206.268 0.650863C206.551 0.933623 206.692 1.26351 206.692 1.64052V28.7855C206.692 29.1625 206.551 29.4924 206.268 29.7751C205.985 30.0579 205.656 30.1993 205.279 30.1993H202.209C201.805 30.1993 201.468 30.0579 201.199 29.7751C200.929 29.4924 200.795 29.1625 200.795 28.7855V18.1214H187.828V28.7855C187.828 29.1625 187.694 29.4924 187.424 29.7751C187.155 30.0579 186.818 30.1993 186.414 30.1993H183.344C182.967 30.1993 182.638 30.0579 182.355 29.7751C182.072 29.4924 181.931 29.1625 181.931 28.7855V13.678C181.931 13.301 182.072 12.9711 182.355 12.6884C182.638 12.4056 182.967 12.2642 183.344 12.2642H200.795V1.64052C200.795 1.26351 200.929 0.933623 201.199 0.650863C201.468 0.368103 201.805 0.226723 202.209 0.226723H205.279ZM224.951 0.549877C225.274 0.819172 225.435 1.18272 225.435 1.64052V4.67009C225.435 5.02018 225.334 5.32313 225.132 5.57896C224.93 5.83479 224.654 6.0031 224.304 6.08389C222.581 6.43398 221.113 7.25533 219.901 8.54794C218.259 10.2714 217.437 12.5133 217.437 15.2736C217.437 18.0339 218.259 20.2892 219.901 22.0396C221.113 23.3053 222.581 24.1132 224.304 24.4633C224.654 24.5441 224.93 24.7124 225.132 24.9682C225.334 25.224 225.435 25.527 225.435 25.8771V28.9067C225.435 29.3375 225.274 29.7011 224.951 29.9973C224.654 30.2127 224.345 30.3204 224.021 30.3204H223.779C220.655 29.8088 217.976 28.395 215.741 26.0791C212.94 23.1976 211.54 19.6092 211.54 15.314C211.54 11.0187 212.94 7.40344 215.741 4.46812C217.922 2.20604 220.601 0.805708 223.779 0.267118C224.21 0.186329 224.6 0.280582 224.951 0.549877ZM237.634 4.46812C240.435 7.40344 241.835 11.0187 241.835 15.314C241.835 19.6092 240.435 23.1976 237.634 26.0791C235.399 28.395 232.72 29.8088 229.596 30.3204H229.354C229.03 30.3204 228.721 30.2127 228.424 29.9973C228.101 29.7011 227.94 29.3375 227.94 28.9067V25.8771C227.94 25.527 228.041 25.224 228.243 24.9682C228.445 24.7124 228.721 24.5441 229.071 24.4633C230.794 24.1132 232.262 23.3053 233.474 22.0396C235.116 20.2892 235.938 18.0339 235.938 15.2736C235.938 12.5133 235.116 10.2714 233.474 8.54794C232.262 7.25533 230.794 6.43398 229.071 6.08389C228.721 6.0031 228.445 5.83479 228.243 5.57896C228.041 5.32313 227.94 5.02018 227.94 4.67009V1.64052C227.94 1.18272 228.108 0.819172 228.445 0.549877C228.781 0.280582 229.165 0.186329 229.596 0.267118C232.774 0.805708 235.453 2.20604 237.634 4.46812ZM260.296 0.226723C263.5 0.226723 266.085 1.14906 268.051 2.99373C270.017 4.8384 271 7.29572 271 10.3657C271 13.4356 270.031 15.8862 268.092 17.7174C266.153 19.5486 263.554 20.4643 260.296 20.4643H252.58V28.7047C252.58 29.0817 252.439 29.4116 252.156 29.6943C251.873 29.9771 251.543 30.1185 251.166 30.1185H248.096C247.719 30.1185 247.39 29.9771 247.107 29.6943C246.824 29.4116 246.683 29.0817 246.683 28.7047V16.1825C246.683 15.8054 246.824 15.4756 247.107 15.1928C247.39 14.91 247.719 14.7687 248.096 14.7687H260.053C261.857 14.7687 263.15 14.3782 263.931 13.5972C264.712 12.8971 265.102 11.8333 265.102 10.4061C265.102 8.97881 264.699 7.88144 263.891 7.11395C263.083 6.34645 261.804 5.96271 260.053 5.96271H248.096C247.719 5.96271 247.39 5.82133 247.107 5.53857C246.824 5.25581 246.683 4.92592 246.683 4.54891V1.64052C246.683 1.26351 246.824 0.933623 247.107 0.650863C247.39 0.368103 247.719 0.226723 248.096 0.226723H260.296Z" fill="#111111"/>
</svg>
